<?xml version="1.0" encoding="utf-8"?>
<!-- Generator: Adobe Illustrator 27.3.1, SVG Export Plug-In . SVG Version: 6.00 Build 0)  -->
<svg version="1.1" id="Lager_1" xmlns="http://www.w3.org/2000/svg" xmlns:xlink="http://www.w3.org/1999/xlink" x="0px" y="0px"
	 viewBox="0 0 1212.1 339.6" style="enable-background:new 0 0 1212.1 339.6;" xml:space="preserve">
<style type="text/css">
	.st0{fill:#202E55;stroke:#202E55;stroke-width:2;stroke-miterlimit:10;}
	.st1{font-family:'BigCaslon-Medium';}
	.st2{font-size:104.3874px;}
	.st3{letter-spacing:10;}
	.st4{fill:#202E55;stroke:#202E55;stroke-width:0.5;stroke-miterlimit:10;}
	.st5{font-size:36.4086px;}
	.st6{letter-spacing:5;}
	.st7{fill:#CFAD11;}
</style>
<g id="Lager_5">
</g>
<text transform="matrix(1 0 0 1 335.4478 240.3457)" class="st0 st1 st2 st3">SANO MARIN</text>
<text transform="matrix(1 0 0 1 341.0269 293.1592)" class="st4 st1 st5 st6">Båtmekaniker på väg till dig</text>
<g id="Layer_2-2_00000085209454471138458190000000958628077161444226_">
	<path class="st7" d="M325,37.9c0,0,34.5-5.1,47.7,52.8s-40.6,67.3-40.6,67.3s-24.4,5.4-46.1-1.6c0,0,9.3-31.3-15.1-52.8
		c0,0,7.9-19.9,17.3-34.8C297.5,53.9,308.4,42.9,325,37.9z"/>
	<path class="st7" d="M213,175.8c0,0,17.2,18.7,55.1,8.5c0,0,40.8,38.6,39.2,65.8c-1.6,27.3-32.4,31.8-32.4,31.8
		S214,293.4,194.6,245C194.6,245,183.3,217,213,175.8L213,175.8z"/>
	<path class="st7" d="M161.4,49.9c0,0,36.8-7.5,64.9,47.8c0,0-26.9,10.8-28.4,45.8c0,0-75.3,24.7-92.2-6.5
		c-16.9-31.2,11.5-63.1,11.5-63.1S129.4,55.8,161.4,49.9L161.4,49.9z"/>
	<path class="st7" d="M241.3,107.2c-19.2,1.1-33.8,17.5-32.7,36.6c1.1,19.1,17.6,33.6,36.8,32.5c19.2-1.1,33.8-17.5,32.7-36.6
		C277,120.6,260.5,106.1,241.3,107.2z M245,157.2c-8.6,0.5-16-6-16.5-14.6c-0.5-8.6,6.1-15.9,14.7-16.4c8.6-0.5,16,6,16.5,14.6
		C260.2,149.3,253.6,156.7,245,157.2z"/>
</g>
</svg>
