<?xml version="1.0" encoding="utf-8"?>
<!-- Generator: Adobe Illustrator 27.3.1, SVG Export Plug-In . SVG Version: 6.00 Build 0)  -->
<svg version="1.1" id="Lager_1" xmlns="http://www.w3.org/2000/svg" xmlns:xlink="http://www.w3.org/1999/xlink" x="0px" y="0px"
	 viewBox="0 0 841.9 595.3" style="enable-background:new 0 0 841.9 595.3;" xml:space="preserve">
<style type="text/css">
	.st0{fill:#FFFFFF;stroke:#FFFFFF;stroke-width:2;stroke-miterlimit:10;}
	.st1{font-family:'BigCaslon-Medium';}
	.st2{font-size:68.8106px;}
	.st3{letter-spacing:6;}
	.st4{fill:#FFFFFF;stroke:#FFFFFF;stroke-width:0.5;stroke-miterlimit:10;}
	.st5{font-size:24px;}
	.st6{letter-spacing:3;}
	.st7{fill:#CFAD11;}
</style>
<text transform="matrix(1 0 0 1 231.7985 290.549)" class="st0 st1 st2 st3">SANO MARIN</text>
<text transform="matrix(1 0 0 1 235.4758 325.3625)" class="st4 st1 st5 st6">Båtmekaniker på väg till dig</text>
<g id="Layer_2-2">
	<path class="st7" d="M224.9,157.1c0,0,22.7-3.4,31.5,34.8c8.7,38.2-26.8,44.4-26.8,44.4s-16.1,3.5-30.4-1.1c0,0,6.1-20.6-9.9-34.8
		c0,0,5.2-13.1,11.4-23C206.8,167.6,214,160.4,224.9,157.1z"/>
	<path class="st7" d="M151.1,248c0,0,11.3,12.3,36.3,5.6c0,0,26.9,25.4,25.8,43.4c-1.1,18-21.4,21-21.4,21s-40.1,7.6-53-24.3
		C138.9,293.6,131.5,275.1,151.1,248L151.1,248z"/>
	<path class="st7" d="M117.1,165c0,0,24.3-4.9,42.8,31.5c0,0-17.7,7.1-18.7,30.2c0,0-49.6,16.3-60.8-4.3
		c-11.1-20.6,7.6-41.6,7.6-41.6S96,168.9,117.1,165L117.1,165z"/>
	<path class="st7" d="M169.7,202.8c-12.6,0.7-22.3,11.5-21.6,24.1c0.7,12.6,11.6,22.2,24.2,21.4c12.6-0.7,22.3-11.5,21.6-24.1
		C193.2,211.6,182.4,202,169.7,202.8z M172.2,235.7c-5.7,0.3-10.5-4-10.9-9.6c-0.3-5.6,4-10.5,9.7-10.8c5.7-0.3,10.5,4,10.9,9.6
		C182.2,230.6,177.9,235.4,172.2,235.7z"/>
</g>
</svg>
